#!OML:ASF F:\VICON\USERDATA\INSTALL\rory3\rory3.ASF
:FULLY-SPECIFIED
:DEGREES
4341
root 5.61808 17.8902 10.5165 1070.31 -53.4615 1091.68
lowerback 11.5427 -0.121072 -6.3628
upperback 0.80117 -1.03453 -0.359034
thorax -5.53652 -0.369805 3.37864
lowerneck -17.0226 -4.68028 -10.5029
upperneck 31.8222 -6.20397 6.45894
head 14.314 -3.25175 3.32422
rclavicle 9.0944e-015 -9.54166e-015
rhumerus -36.8452 -8.75082 -80.055
rradius 37.0794
rwrist 3.93912
rhand -15.6473 8.79834
rfingers 7.12502
rthumb 10.5404 -20.9174
lclavicle 9.0944e-015 -9.54166e-015
lhumerus -33.2839 1.65448 81.7391
lradius 32.2033
lwrist -3.96212
lhand -19.1007 26.117
lfingers 7.12502
lthumb 7.20799 55.9743
rfemur -29.0108 -9.62175 18.6691
rtibia 42.2328
rfoot -12.132 -7.43182
rtoes 6.35632
lfemur 5.12542 2.06532 -28.3511
ltibia 12.0854
lfoot -9.55254 -1.07744
ltoes -13.8262
4342
root 5.526 17.89 10.5824 1070.45 -53.7001 1091.69
lowerback 11.454 -0.148411 -6.47207
upperback 0.684355 -1.07723 -0.293822
thorax -5.60319 -0.3816 3.51533
lowerneck -16.7299 -4.7093 -10.669
upperneck 31.8315 -6.26826 6.54308
head 14.271 -3.29806 3.37931
rclavicle -4.8901e-014 -1.27222e-014
rhumerus -37.0151 -9.38231 -79.8037
rradius 36.966
rwrist 4.20067
rhand -15.7645 8.93242
rfingers 7.12502
rthumb 10.4273 -20.789
lclavicle -4.8901e-014 -1.27222e-014
lhumerus -33.2557 1.04311 81.8672
lradius 32.3865
lwrist -3.65251
lhand -19.2448 25.7574
lfingers 7.12502
lthumb 7.06885 55.6194
rfemur -28.9875 -9.27939 18.8572
rtibia 39.7845
rfoot -11.8914 -7.92416
rtoes 10.5561
lfemur 5.82735 2.38058 -28.3
ltibia 11.1952
lfoot -9.31191 -1.13492
ltoes -15.1549
4343
root 5.43465 17.8949 10.6542 1070.47 -53.884 1091.84
lowerback 11.3365 -0.220199 -6.5714
upperback 0.55253 -1.17816 -0.26561
thorax -5.66395 -0.422358 3.61597
lowerneck -16.3395 -4.69041 -10.8418
upperneck 31.7887 -6.26034 6.60369
head 14.1741 -3.3188 3.43868
rclavicle -3.57315e-014 1.59028e-015
rhumerus -37.1619 -9.82 -79.6426
rradius 36.783
rwrist 4.37087
rhand -15.8076 8.8498
rfingers 7.12502
rthumb 10.3858 -20.8737
lclavicle -3.57315e-014 1.59028e-015
lhumerus -33.2372 1.06483 81.8223
lradius 32.4533
lwrist -3.80643
lhand -19.0672 25.5356
lfingers 7.12502
lthumb 7.24027 55.3918
rfemur -28.8857 -8.73513 18.8503
rtibia 37.3769
rfoot -11.681 -8.58452
rtoes 15.1644
lfemur 6.55313 2.46749 -28.3908
ltibia 10.2932
lfoot -8.99634 -1.05832
ltoes -15.7692
4344
root 5.34358 17.9027 10.7216 1070.34 -53.9414 1092.13
lowerback 11.2617 -0.323343 -6.70134
upperback 0.50636 -1.33194 -0.334561
thorax -5.65311 -0.494676 3.63905
lowerneck -16.2338 -4.70602 -10.902
upperneck 31.8083 -6.31155 6.67665
head 14.1707 -3.34364 3.47146
rclavicle -2.57923e-014 -1.98785e-015
rhumerus -37.2711 -10.0317 -79.6087
rradius 36.6854
rwrist 4.30223
rhand -15.6328 8.81568
rfingers 7.12502
rthumb 10.5544 -20.8993
lclavicle -2.57923e-014 -1.98785e-015
lhumerus -33.0927 1.04369 81.7278
lradius 32.6054
lwrist -3.68154
lhand -19.562 25.6204
lfingers 7.12502
lthumb 6.76261 55.4924
rfemur -28.7588 -8.53475 18.7979
rtibia 35.091
rfoot -11.2028 -9.12543
rtoes 16.9499
lfemur 7.38084 2.31369 -28.5627
ltibia 9.23515
lfoot -8.48362 -0.947745
ltoes -15.7408
4345
root 5.24805 17.9068 10.7919 1070.3 -54.0936 1092.28
lowerback 11.0831 -0.404423 -6.7355
upperback 0.543677 -1.42985 -0.360724
thorax -5.50226 -0.548698 3.64102
lowerneck -16.2292 -4.73501 -10.9973
upperneck 31.7802 -6.36119 6.77776
head 14.1713 -3.36387 3.52007
rclavicle -5.18828e-014 -1.98785e-015
rhumerus -37.373 -10.1979 -79.5147
rradius 36.7004
rwrist 4.0762
rhand -15.3243 9.06765
rfingers 7.12502
rthumb 10.852 -20.632
lclavicle -5.18828e-014 -1.98785e-015
lhumerus -32.8836 1.06889 81.6424
lradius 32.8474
lwrist -3.5293
lhand -19.8666 25.7227
lfingers 7.12502
lthumb 6.4686 55.6039
rfemur -28.6501 -8.44667 18.9214
rtibia 32.9808
rfoot -10.2607 -9.3942
rtoes 16.9086
lfemur 8.47386 2.24249 -28.6471
ltibia 7.71343
lfoot -7.75001 -0.862624
ltoes -16.3923
4346
root 5.14735 17.9095 10.8621 1070.13 -54.2975 1092.58
lowerback 10.9243 -0.418861 -6.96937
upperback 0.567449 -1.46607 -0.384248
thorax -5.37926 -0.566313 3.74919
lowerneck -16.2606 -4.77563 -10.8351
upperneck 31.8236 -6.44992 6.69638
head 14.1974 -3.39444 3.4428
rclavicle 4.06018e-014 2.18663e-014
rhumerus -37.5523 -10.5981 -79.3002
rradius 36.688
rwrist 4.14726
rhand -15.1648 9.45551
rfingers 7.12502
rthumb 11.0058 -20.236
lclavicle 4.06018e-014 2.18663e-014
lhumerus -32.7149 0.775587 81.6502
lradius 33.1452
lwrist -3.00851
lhand -20.0228 25.8946
lfingers 7.12502
lthumb 6.31776 55.7804
rfemur -28.5276 -8.23045 18.9412
rtibia 31.0555
rfoot -9.29126 -9.57749
rtoes 17.0452
lfemur 9.6977 2.24116 -28.8198
ltibia 5.99301
lfoot -6.89784 -0.822088
ltoes -16.7413
4347
root 5.04651 17.9151 10.9301 1070.03 -54.4691 1092.78
lowerback 10.8185 -0.454334 -7.19157
upperback 0.550017 -1.53025 -0.350603
thorax -5.32472 -0.593598 3.91688
lowerneck -16.2265 -4.77022 -10.6175
upperneck 31.8917 -6.44367 6.45718
head 14.1999 -3.40044 3.30895
rclavicle -2.50966e-014 2.74323e-014
rhumerus -37.7879 -10.8805 -79.0178
rradius 36.6208
rwrist 4.48073
rhand -15.358 9.74029
rfingers 7.12502
rthumb 10.8195 -19.961
lclavicle -2.50966e-014 2.74323e-014
lhumerus -32.5932 0.557095 81.7122
lradius 33.3405
lwrist -2.50849
lhand -19.9563 25.7828
lfingers 7.12502
lthumb 6.38203 55.6667
rfemur -28.4068 -8.01542 18.9834
rtibia 29.358
rfoot -8.57582 -9.84018
rtoes 17.0491
lfemur 10.8687 2.19654 -28.9256
ltibia 4.37304
lfoot -6.07436 -0.780024
ltoes -16.2754
4348
root 4.94858 17.9179 10.9974 1070.14 -54.6193 1092.69
lowerback 10.6985 -0.519928 -7.14327
upperback 0.561757 -1.59683 -0.292584
thorax -5.23643 -0.630327 3.95731
lowerneck -16.1017 -4.76064 -10.641
upperneck 31.8454 -6.41791 6.40256
head 14.1475 -3.40231 3.29537
rclavicle -6.04305e-014 -6.75868e-015
rhumerus -37.9607 -10.906 -78.8922
rradius 36.5657
rwrist 4.5045
rhand -15.7829 9.68614
rfingers 7.12502
rthumb 10.4095 -20.0362
lclavicle -6.04305e-014 -6.75868e-015
lhumerus -32.3305 0.497863 81.7321
lradius 33.3616
lwrist -2.38359
lhand -19.9475 25.8214
lfingers 7.12502
lthumb 6.39055 55.705
rfemur -28.3177 -8.00728 19.2575
rtibia 27.934
rfoot -7.9698 -10.1289
rtoes 16.0289
lfemur 12.3085 2.10481 -28.8672
ltibia 2.22131
lfoot -4.94972 -0.806335
ltoes -16.6065
4349
root 4.84852 17.9145 11.0678 1070.05 -54.8057 1092.78
lowerback 10.5555 -0.572968 -7.08976
upperback 0.641636 -1.64826 -0.33373
thorax -5.06811 -0.666219 3.88605
lowerneck -16.2282 -4.76163 -10.5908
upperneck 31.936 -6.42289 6.38121
head 14.2133 -3.40107 3.27715
rclavicle 7.48424e-014 -2.10712e-014
rhumerus -38.0356 -10.5804 -79.0701
rradius 36.623
rwrist 3.94382
rhand -16.2317 9.22454
rfingers 7.12502
rthumb 9.97662 -20.519
lclavicle 7.48424e-014 -2.10712e-014
lhumerus -31.9492 0.566776 81.621
lradius 33.3072
lwrist -2.5045
lhand -19.9964 25.9989
lfingers 7.12502
lthumb 6.34329 55.884
rfemur -28.1958 -8.03852 19.4689
rtibia 26.7961
rfoot -7.40687 -10.4364
rtoes 13.2523
lfemur 13.8553 2.07998 -28.9293
ltibia 9.54166e-015
lfoot -3.82172 -0.937907
ltoes -18.4469
